<svg xmlns="http://www.w3.org/2000/svg" width="608.65" height="368.837" viewBox="0 0 608.65 368.837"><g transform="translate(-651.862 -57.759)"><path d="M1126.014,189.622H1245.9v75.088s.73,37.677-58.968,37.774-60.922-37.774-60.922-37.774Z" transform="translate(5.512 -3.267)" fill="#1e2230"/><path d="M1126.014,189.622H1245.9v75.088s.73,37.677-58.968,37.774-60.922-37.774-60.922-37.774Z" transform="translate(-310.275 -3.267)" fill="#1e2230"/><path d="M769.815,57.759v81.524s1.115,10.761-4.906,20.3a19.527,19.527,0,0,1-16.572,8.965H651.973v-76.2a31.655,31.655,0,0,1,8.307-23.783c10.015-10.855,27.708-10.8,27.708-10.8Z" fill="#1e2230"/><path d="M769.815,57.759v81.524s1.115,10.761-4.906,20.3a19.527,19.527,0,0,1-16.572,8.965H651.973v-76.2a31.655,31.655,0,0,1,8.307-23.783c10.015-10.855,27.708-10.8,27.708-10.8Z" transform="translate(0 257.596)" fill="#1e2230"/><path d="M769.815,57.759v81.524s1.115,10.761-4.906,20.3a19.527,19.527,0,0,1-16.572,8.965H651.973v-76.2a31.655,31.655,0,0,1,8.307-23.783c10.015-10.855,27.708-10.8,27.708-10.8Z" transform="translate(329.617)" fill="#1e2230"/><path d="M769.815,57.759v81.524s1.115,10.761-4.906,20.3a19.527,19.527,0,0,1-16.572,8.965H651.973v-76.2a31.655,31.655,0,0,1,8.307-23.783c10.015-10.855,27.708-10.8,27.708-10.8Z" transform="translate(329.617 257.596)" fill="#1e2230"/><circle cx="55.5" cy="55.5" r="55.5" transform="translate(820.512 58)" fill="#1e2230"/><circle cx="55.5" cy="55.5" r="55.5" transform="translate(820.203 315.596)" fill="#1e2230"/><circle cx="55.5" cy="55.5" r="55.5" transform="translate(1149.512 58)" fill="#1e2230"/><circle cx="55.5" cy="55.5" r="55.5" transform="translate(1149.512 315.596)" fill="#1e2230"/><circle cx="55.5" cy="55.5" r="55.5" transform="translate(985.512 187)" fill="#1e2230"/><circle cx="55.5" cy="55.5" r="55.5" transform="translate(654.512 187)" fill="#1e2230"/></g></svg>