<svg xmlns="http://www.w3.org/2000/svg" width="608.624" height="190.262" viewBox="0 0 608.624 190.262"><g transform="translate(-651.888 -57.759)"><path d="M1126.014,189.622H1245.9v61.666l-119.889-.752Z" transform="translate(5.512 -3.267)" fill="#1e2230"/><path d="M1126.014,189.622H1245.9v59.455s-119.747-.926-119.889-.99Z" transform="translate(-310.275 -3.267)" fill="#1e2230"/><path d="M769.815,57.759v81.524s1.115,10.761-4.906,20.3a19.527,19.527,0,0,1-16.572,8.965H651.973v-76.2a31.655,31.655,0,0,1,8.307-23.783c10.015-10.855,27.708-10.8,27.708-10.8Z" fill="#1e2230"/><path d="M769.815,57.759v81.524s1.115,10.761-4.906,20.3a19.527,19.527,0,0,1-16.572,8.965H651.973v-76.2a31.655,31.655,0,0,1,8.307-23.783c10.015-10.855,27.708-10.8,27.708-10.8Z" transform="translate(329.617)" fill="#1e2230"/><circle cx="55.5" cy="55.5" r="55.5" transform="translate(820.512 58)" fill="#1e2230"/><circle cx="55.5" cy="55.5" r="55.5" transform="translate(1149.512 58)" fill="#1e2230"/><path d="M55.5,0A55.5,55.5,0,0,1,111,55.5c0,1.5.138,2.581,0,4.307.391.14-110.856-.609-110.88-.628C.046,58.125,0,56.818,0,55.5A55.5,55.5,0,0,1,55.5,0Z" transform="translate(985.512 187)" fill="#1e2230"/><path d="M55.5,0A55.5,55.5,0,0,1,111,55.5a12.971,12.971,0,0,1-.183,2.12C110.5,57.442.348,57.352.094,57.028A11.413,11.413,0,0,1,0,55.5,55.5,55.5,0,0,1,55.5,0Z" transform="translate(654.512 187)" fill="#1e2230"/></g></svg>